<svg xmlns="http://www.w3.org/2000/svg" xmlns:xlink="http://www.w3.org/1999/xlink" width="1000" zoomAndPan="magnify" viewBox="0 0 750 187.499995" height="250" preserveAspectRatio="xMidYMid meet" version="1.0"><defs><g/></defs><g fill="#d8aa32" fill-opacity="1"><g transform="translate(139.993502, 120.381727)"><g><path d="M 95.6875 0.328125 L 92.28125 0 L 88.546875 -1.625 L 85.296875 -4.046875 L 84.328125 -6.96875 L 82.875 -10.046875 L 79.78125 -12.65625 L 76.21875 -14.4375 L 72.65625 -13.953125 L 69.734375 -14.265625 L 53.84375 -14.109375 L 50.921875 -14.59375 L 44.109375 -13.953125 L 41.03125 -14.4375 L 37.625 -12.65625 L 34.546875 -9.5625 L 31.625 -4.21875 L 28.546875 -1.296875 L 24.8125 -0.15625 L 15.734375 0.15625 L 12.484375 -0.15625 L 6.15625 0.15625 L 2.921875 -0.8125 L 2.109375 -4.859375 L 3.078125 -8.109375 L 6.328125 -14.59375 L 7.140625 -17.515625 L 8.921875 -19.78125 L 11.359375 -26.265625 L 14.265625 -31.46875 L 15.40625 -34.703125 L 17.03125 -37.140625 L 18 -40.703125 L 34.546875 -75.40625 L 35.515625 -78.328125 L 37.296875 -81.40625 L 38.109375 -84.65625 L 39.890625 -87.09375 L 46.375 -102 L 47.84375 -104.28125 L 48.96875 -107.515625 L 50.4375 -110.28125 L 53.359375 -113.03125 L 58.546875 -114.8125 L 63.890625 -113.203125 L 66.65625 -110.28125 L 69.734375 -104.59375 L 70.703125 -101.6875 L 72.484375 -98.765625 L 73.46875 -95.515625 L 84.171875 -72.984375 L 85.296875 -69.578125 L 88.703125 -63.578125 L 89.6875 -60.984375 L 91.140625 -58.546875 L 92.109375 -54.96875 L 93.734375 -51.890625 L 95.359375 -49.46875 L 101.515625 -34.703125 L 104.765625 -28.859375 L 107.03125 -22.859375 L 111.40625 -14.4375 L 113.84375 -8.4375 L 114.984375 -4.703125 L 114.5 -0.8125 L 109.953125 0 L 104.921875 0.15625 L 101.84375 -0.15625 Z M 58.875 -40.0625 L 65.359375 -40.21875 L 67.78125 -41.515625 L 68.4375 -44.4375 L 60.8125 -62.28125 L 58.546875 -63.578125 L 56.765625 -62.109375 L 49.140625 -44.59375 L 49.296875 -41.515625 L 51.890625 -40.375 L 55.625 -40.703125 Z M 58.875 -40.0625 "/></g></g></g><g fill="#d8aa32" fill-opacity="1"><g transform="translate(257.734565, 120.381727)"><g><path d="M 56.4375 1.296875 L 53.359375 1.140625 L 50.4375 0.484375 L 47.1875 -0.65625 L 44.265625 -1.296875 L 36.96875 -4.375 L 30 -8.109375 L 22.703125 -14.4375 L 16.0625 -21.5625 L 9.078125 -35.671875 L 6.8125 -44.921875 L 5.84375 -56.765625 L 7.453125 -70.703125 L 9.078125 -77.359375 L 13.140625 -86.4375 L 16.21875 -91.140625 L 20.59375 -96.65625 L 27.5625 -102.984375 L 32.265625 -106.546875 L 44.265625 -112.21875 L 60 -115.296875 L 70.0625 -115.140625 L 73.296875 -114.65625 L 76.390625 -114.5 L 91.953125 -109.296875 L 102.984375 -102.328125 L 107.515625 -97.625 L 109.296875 -94.546875 L 111.578125 -91.796875 L 113.03125 -89.1875 L 114.8125 -86.59375 L 115.796875 -83.1875 L 116.921875 -80.28125 L 117.90625 -76.703125 L 116.765625 -73.46875 L 114 -72.171875 L 109.140625 -71.6875 L 104.59375 -72.171875 L 101.359375 -72 L 97.953125 -72.171875 L 95.03125 -71.84375 L 91.296875 -73.625 L 88.21875 -76.703125 L 86.4375 -79.140625 L 81.734375 -83.84375 L 79.46875 -85.625 L 76.546875 -86.765625 L 71.515625 -88.21875 L 64.546875 -88.546875 L 53.671875 -87.09375 L 49.296875 -84.65625 L 45.40625 -81.578125 L 41.515625 -77.03125 L 39.890625 -73.953125 L 37.46875 -68.109375 L 36.328125 -61.625 L 36.328125 -51.734375 L 36.8125 -48.171875 L 37.625 -45.25 L 38.765625 -42.96875 L 39.890625 -39.734375 L 43.46875 -34.0625 L 48.171875 -29.84375 L 53.84375 -26.921875 L 59.671875 -24.8125 L 64.375 -24.328125 L 72.984375 -24.8125 L 78.65625 -27.890625 L 81.078125 -28.859375 L 83.6875 -31.140625 L 87.40625 -35.359375 L 89.03125 -38.4375 L 91.625 -41.03125 L 95.359375 -42.96875 L 98.59375 -42.8125 L 101.84375 -42.96875 L 105.09375 -42.484375 L 114.171875 -43.140625 L 117.40625 -41.03125 L 118.390625 -38.109375 L 114.171875 -25.78125 L 110.765625 -19.953125 L 107.03125 -15.078125 L 102.5 -10.546875 L 94.546875 -4.859375 L 91.796875 -3.5625 L 88.390625 -2.4375 L 85.46875 -0.8125 L 75.890625 1.140625 L 64.546875 1.953125 Z M 56.4375 1.296875 "/></g></g></g><g fill="#d8aa32" fill-opacity="1"><g transform="translate(381.476188, 120.381727)"><g><path d="M 16.859375 0.484375 L 13.625 -1.625 L 11.84375 -5.03125 L 12 -40.875 L 11.671875 -43.953125 L 12.15625 -60.328125 L 11.84375 -63.578125 L 12 -89.515625 L 11.671875 -92.4375 L 12.15625 -98.765625 L 11.671875 -108.65625 L 13.453125 -112.0625 L 17.03125 -113.6875 L 21.5625 -112.390625 L 25.296875 -109.625 L 29.515625 -105.25 L 32.109375 -102.984375 L 36.328125 -97.953125 L 38.59375 -96 L 53.359375 -79.625 L 56.921875 -76.390625 L 59.84375 -72.65625 L 62.109375 -70.375 L 64.0625 -67.625 L 67.46875 -66.328125 L 70.375 -68.28125 L 80.28125 -78.328125 L 82.390625 -81.078125 L 96.65625 -95.6875 L 98.921875 -98.59375 L 100.875 -100.390625 L 102.984375 -102.984375 L 109.796875 -110.109375 L 113.203125 -112.21875 L 117.90625 -113.6875 L 121.296875 -111.90625 L 123.25 -108.5 L 122.921875 -105.40625 L 123.09375 -98.765625 L 122.921875 -96 L 123.25 -89.03125 L 123.09375 -85.953125 L 123.25 -69.890625 L 122.921875 -66.328125 L 123.25 -17.671875 L 122.921875 -14.4375 L 123.40625 -6 L 121.46875 -1.296875 L 118.0625 0.484375 L 98.4375 -0.15625 L 95.03125 -1.140625 L 93.734375 -4.859375 L 93.734375 -7.296875 L 93.40625 -14.59375 L 93.734375 -17.515625 L 93.40625 -23.515625 L 93.734375 -29.84375 L 93.25 -36.328125 L 93.578125 -45.25 L 92.28125 -47.671875 L 90.171875 -46.703125 L 83.515625 -39.890625 L 81.25 -38.265625 L 76.703125 -32.921875 L 74.765625 -30.96875 L 72.484375 -28.546875 L 69.25 -26.109375 L 65.671875 -26.265625 L 62.28125 -28.703125 L 57.890625 -32.921875 L 55.78125 -35.515625 L 49.140625 -42.171875 L 47.1875 -44.59375 L 44.59375 -46.703125 L 42.96875 -47.359375 L 41.515625 -45.890625 L 41.515625 -39.5625 L 41.84375 -36 L 41.515625 -30.15625 L 41.671875 -26.765625 L 41.1875 -21.734375 L 41.671875 -4.703125 L 39.734375 -1.78125 L 35.1875 0.15625 L 30 -0.15625 L 26.4375 0.328125 L 20.109375 0 Z M 16.859375 0.484375 "/></g></g></g><g fill="#d8aa32" fill-opacity="1"><g transform="translate(517.056793, 120.381727)"><g><path d="M 56.4375 0.484375 L 53.1875 0.15625 L 49.953125 0.484375 L 46.21875 0.328125 L 43.140625 -0.328125 L 36.484375 0.15625 L 33.5625 0 L 30 0.328125 L 18.328125 0.15625 L 13.453125 -1.953125 L 12.15625 -6.328125 L 11.84375 -9.890625 L 12.328125 -21.078125 L 11.84375 -24.328125 L 12.15625 -27.40625 L 12.328125 -53.671875 L 11.84375 -56.59375 L 12 -69.890625 L 12.328125 -72.984375 L 11.84375 -76.390625 L 12.15625 -92.28125 L 11.671875 -95.84375 L 12.15625 -102.5 L 11.84375 -108.65625 L 13.625 -112.0625 L 17.03125 -113.359375 L 20.265625 -113.203125 L 23.515625 -113.515625 L 26.4375 -113.203125 L 29.515625 -113.84375 L 32.765625 -113.359375 L 46.0625 -113.6875 L 49.296875 -113.359375 L 52.0625 -113.515625 L 55.296875 -113.203125 L 58.875 -113.515625 L 72 -113.6875 L 74.921875 -113.03125 L 78.328125 -113.03125 L 81.578125 -111.734375 L 83.03125 -108.65625 L 83.359375 -98.921875 L 83.1875 -95.6875 L 83.359375 -92.4375 L 81.734375 -89.515625 L 78.328125 -87.578125 L 75.25 -87.40625 L 52.0625 -87.734375 L 48.96875 -87.09375 L 45.890625 -87.25 L 42.328125 -85.953125 L 40.875 -82.875 L 40.875 -77.84375 L 42.171875 -72.8125 L 45.5625 -71.359375 L 54.96875 -71.6875 L 61.78125 -71.1875 L 65.1875 -71.515625 L 74.765625 -71.515625 L 78.484375 -69.40625 L 80.109375 -64.875 L 79.625 -50.265625 L 78.484375 -47.03125 L 75.25 -45.734375 L 71.515625 -45.890625 L 68.28125 -45.5625 L 61.625 -45.734375 L 55.46875 -45.40625 L 50.265625 -45.890625 L 45.40625 -45.734375 L 42.484375 -43.953125 L 41.03125 -40.546875 L 41.03125 -30.328125 L 42.328125 -27.40625 L 45.734375 -25.78125 L 49.296875 -26.109375 L 52.375 -25.625 L 55.953125 -25.78125 L 59.1875 -25.46875 L 64.546875 -26.109375 L 72.8125 -25.953125 L 75.890625 -25.46875 L 79.625 -25.78125 L 83.03125 -24.328125 L 84.8125 -21.078125 L 84.8125 -4.703125 L 83.03125 -1.296875 L 79.625 0.15625 Z M 56.4375 0.484375 "/></g></g></g><g fill="#000000" fill-opacity="1"><g transform="translate(206.488663, 163.272881)"><g><path d="M 15.9375 -24.25 C 13.625 -24.25 11.832031 -23.378906 10.5625 -21.640625 C 9.300781 -19.898438 8.671875 -17.484375 8.671875 -14.390625 C 8.671875 -7.929688 11.09375 -4.703125 15.9375 -4.703125 C 17.96875 -4.703125 20.425781 -5.210938 23.3125 -6.234375 L 23.3125 -1.09375 C 20.9375 -0.101562 18.285156 0.390625 15.359375 0.390625 C 11.148438 0.390625 7.929688 -0.882812 5.703125 -3.4375 C 3.472656 -5.988281 2.359375 -9.648438 2.359375 -14.421875 C 2.359375 -17.429688 2.90625 -20.066406 4 -22.328125 C 5.09375 -24.597656 6.664062 -26.332031 8.71875 -27.53125 C 10.769531 -28.738281 13.175781 -29.34375 15.9375 -29.34375 C 18.738281 -29.34375 21.5625 -28.664062 24.40625 -27.3125 L 22.421875 -22.328125 C 21.335938 -22.835938 20.25 -23.285156 19.15625 -23.671875 C 18.0625 -24.054688 16.988281 -24.25 15.9375 -24.25 Z M 15.9375 -24.25 "/></g></g></g><g fill="#000000" fill-opacity="1"><g transform="translate(241.550989, 163.272881)"><g><path d="M 7.96875 -11.109375 C 7.96875 -8.910156 8.328125 -7.25 9.046875 -6.125 C 9.773438 -5.007812 10.945312 -4.453125 12.5625 -4.453125 C 14.175781 -4.453125 15.332031 -5.007812 16.03125 -6.125 C 16.738281 -7.238281 17.09375 -8.898438 17.09375 -11.109375 C 17.09375 -13.296875 16.738281 -14.9375 16.03125 -16.03125 C 15.320312 -17.125 14.15625 -17.671875 12.53125 -17.671875 C 10.914062 -17.671875 9.75 -17.125 9.03125 -16.03125 C 8.320312 -14.945312 7.96875 -13.304688 7.96875 -11.109375 Z M 23.28125 -11.109375 C 23.28125 -7.503906 22.328125 -4.6875 20.421875 -2.65625 C 18.523438 -0.625 15.878906 0.390625 12.484375 0.390625 C 10.359375 0.390625 8.484375 -0.0703125 6.859375 -1 C 5.242188 -1.925781 4 -3.257812 3.125 -5 C 2.257812 -6.75 1.828125 -8.785156 1.828125 -11.109375 C 1.828125 -14.722656 2.769531 -17.53125 4.65625 -19.53125 C 6.539062 -21.539062 9.191406 -22.546875 12.609375 -22.546875 C 14.734375 -22.546875 16.601562 -22.082031 18.21875 -21.15625 C 19.84375 -20.226562 21.09375 -18.898438 21.96875 -17.171875 C 22.84375 -15.441406 23.28125 -13.421875 23.28125 -11.109375 Z M 23.28125 -11.109375 "/></g></g></g><g fill="#000000" fill-opacity="1"><g transform="translate(275.881212, 163.272881)"><g><path d="M 15.515625 -22.546875 C 16.335938 -22.546875 17.015625 -22.484375 17.546875 -22.359375 L 17.09375 -16.703125 C 16.601562 -16.835938 16.007812 -16.90625 15.3125 -16.90625 C 13.382812 -16.90625 11.882812 -16.410156 10.8125 -15.421875 C 9.738281 -14.429688 9.203125 -13.046875 9.203125 -11.265625 L 9.203125 0 L 3.171875 0 L 3.171875 -22.125 L 7.734375 -22.125 L 8.625 -18.40625 L 8.921875 -18.40625 C 9.609375 -19.644531 10.535156 -20.644531 11.703125 -21.40625 C 12.867188 -22.164062 14.140625 -22.546875 15.515625 -22.546875 Z M 15.515625 -22.546875 "/></g></g></g><g fill="#000000" fill-opacity="1"><g transform="translate(303.523578, 163.272881)"><g><path d="M 15.3125 0.390625 C 12.71875 0.390625 10.679688 -0.550781 9.203125 -2.4375 L 8.890625 -2.4375 C 9.097656 -0.582031 9.203125 0.484375 9.203125 0.765625 L 9.203125 9.734375 L 3.171875 9.734375 L 3.171875 -22.125 L 8.078125 -22.125 L 8.921875 -19.25 L 9.203125 -19.25 C 10.609375 -21.445312 12.695312 -22.546875 15.46875 -22.546875 C 18.082031 -22.546875 20.128906 -21.535156 21.609375 -19.515625 C 23.085938 -17.492188 23.828125 -14.691406 23.828125 -11.109375 C 23.828125 -8.742188 23.476562 -6.6875 22.78125 -4.9375 C 22.09375 -3.195312 21.109375 -1.875 19.828125 -0.96875 C 18.546875 -0.0625 17.039062 0.390625 15.3125 0.390625 Z M 13.53125 -17.71875 C 12.039062 -17.71875 10.953125 -17.257812 10.265625 -16.34375 C 9.585938 -15.425781 9.234375 -13.910156 9.203125 -11.796875 L 9.203125 -11.140625 C 9.203125 -8.765625 9.550781 -7.0625 10.25 -6.03125 C 10.957031 -5.007812 12.078125 -4.5 13.609375 -4.5 C 16.316406 -4.5 17.671875 -6.726562 17.671875 -11.1875 C 17.671875 -13.363281 17.335938 -14.992188 16.671875 -16.078125 C 16.003906 -17.171875 14.957031 -17.71875 13.53125 -17.71875 Z M 13.53125 -17.71875 "/></g></g></g><g fill="#000000" fill-opacity="1"><g transform="translate(338.407825, 163.272881)"><g><path d="M 7.96875 -11.109375 C 7.96875 -8.910156 8.328125 -7.25 9.046875 -6.125 C 9.773438 -5.007812 10.945312 -4.453125 12.5625 -4.453125 C 14.175781 -4.453125 15.332031 -5.007812 16.03125 -6.125 C 16.738281 -7.238281 17.09375 -8.898438 17.09375 -11.109375 C 17.09375 -13.296875 16.738281 -14.9375 16.03125 -16.03125 C 15.320312 -17.125 14.15625 -17.671875 12.53125 -17.671875 C 10.914062 -17.671875 9.75 -17.125 9.03125 -16.03125 C 8.320312 -14.945312 7.96875 -13.304688 7.96875 -11.109375 Z M 23.28125 -11.109375 C 23.28125 -7.503906 22.328125 -4.6875 20.421875 -2.65625 C 18.523438 -0.625 15.878906 0.390625 12.484375 0.390625 C 10.359375 0.390625 8.484375 -0.0703125 6.859375 -1 C 5.242188 -1.925781 4 -3.257812 3.125 -5 C 2.257812 -6.75 1.828125 -8.785156 1.828125 -11.109375 C 1.828125 -14.722656 2.769531 -17.53125 4.65625 -19.53125 C 6.539062 -21.539062 9.191406 -22.546875 12.609375 -22.546875 C 14.734375 -22.546875 16.601562 -22.082031 18.21875 -21.15625 C 19.84375 -20.226562 21.09375 -18.898438 21.96875 -17.171875 C 22.84375 -15.441406 23.28125 -13.421875 23.28125 -11.109375 Z M 23.28125 -11.109375 "/></g></g></g><g fill="#000000" fill-opacity="1"><g transform="translate(372.738048, 163.272881)"><g><path d="M 15.515625 -22.546875 C 16.335938 -22.546875 17.015625 -22.484375 17.546875 -22.359375 L 17.09375 -16.703125 C 16.601562 -16.835938 16.007812 -16.90625 15.3125 -16.90625 C 13.382812 -16.90625 11.882812 -16.410156 10.8125 -15.421875 C 9.738281 -14.429688 9.203125 -13.046875 9.203125 -11.265625 L 9.203125 0 L 3.171875 0 L 3.171875 -22.125 L 7.734375 -22.125 L 8.625 -18.40625 L 8.921875 -18.40625 C 9.609375 -19.644531 10.535156 -20.644531 11.703125 -21.40625 C 12.867188 -22.164062 14.140625 -22.546875 15.515625 -22.546875 Z M 15.515625 -22.546875 "/></g></g></g><g fill="#000000" fill-opacity="1"><g transform="translate(400.380403, 163.272881)"><g><path d="M 17.21875 0 L 16.046875 -3.015625 L 15.890625 -3.015625 C 14.878906 -1.734375 13.832031 -0.84375 12.75 -0.34375 C 11.675781 0.144531 10.273438 0.390625 8.546875 0.390625 C 6.421875 0.390625 4.75 -0.210938 3.53125 -1.421875 C 2.3125 -2.640625 1.703125 -4.367188 1.703125 -6.609375 C 1.703125 -8.960938 2.519531 -10.695312 4.15625 -11.8125 C 5.800781 -12.925781 8.28125 -13.539062 11.59375 -13.65625 L 15.4375 -13.78125 L 15.4375 -14.75 C 15.4375 -16.988281 14.289062 -18.109375 12 -18.109375 C 10.226562 -18.109375 8.148438 -17.570312 5.765625 -16.5 L 3.765625 -20.578125 C 6.304688 -21.910156 9.128906 -22.578125 12.234375 -22.578125 C 15.203125 -22.578125 17.476562 -21.929688 19.0625 -20.640625 C 20.644531 -19.347656 21.4375 -17.382812 21.4375 -14.75 L 21.4375 0 Z M 15.4375 -10.25 L 13.09375 -10.171875 C 11.34375 -10.117188 10.035156 -9.800781 9.171875 -9.21875 C 8.316406 -8.644531 7.890625 -7.765625 7.890625 -6.578125 C 7.890625 -4.867188 8.867188 -4.015625 10.828125 -4.015625 C 12.222656 -4.015625 13.335938 -4.414062 14.171875 -5.21875 C 15.015625 -6.03125 15.4375 -7.101562 15.4375 -8.4375 Z M 15.4375 -10.25 "/></g></g></g><g fill="#000000" fill-opacity="1"><g transform="translate(434.097253, 163.272881)"><g><path d="M 12.484375 -4.40625 C 13.546875 -4.40625 14.8125 -4.640625 16.28125 -5.109375 L 16.28125 -0.609375 C 14.78125 0.0546875 12.9375 0.390625 10.75 0.390625 C 8.332031 0.390625 6.570312 -0.21875 5.46875 -1.4375 C 4.363281 -2.65625 3.8125 -4.484375 3.8125 -6.921875 L 3.8125 -17.59375 L 0.9375 -17.59375 L 0.9375 -20.140625 L 4.25 -22.171875 L 6 -26.84375 L 9.859375 -26.84375 L 9.859375 -22.125 L 16.046875 -22.125 L 16.046875 -17.59375 L 9.859375 -17.59375 L 9.859375 -6.921875 C 9.859375 -6.066406 10.097656 -5.429688 10.578125 -5.015625 C 11.054688 -4.609375 11.691406 -4.40625 12.484375 -4.40625 Z M 12.484375 -4.40625 "/></g></g></g><g fill="#000000" fill-opacity="1"><g transform="translate(460.928379, 163.272881)"><g><path d="M 2.90625 -27.84375 C 2.90625 -29.8125 4 -30.796875 6.1875 -30.796875 C 8.382812 -30.796875 9.484375 -29.8125 9.484375 -27.84375 C 9.484375 -26.90625 9.207031 -26.175781 8.65625 -25.65625 C 8.113281 -25.132812 7.289062 -24.875 6.1875 -24.875 C 4 -24.875 2.90625 -25.863281 2.90625 -27.84375 Z M 9.203125 0 L 3.171875 0 L 3.171875 -22.125 L 9.203125 -22.125 Z M 9.203125 0 "/></g></g></g><g fill="#000000" fill-opacity="1"><g transform="translate(482.535854, 163.272881)"><g><path d="M 7.96875 -11.109375 C 7.96875 -8.910156 8.328125 -7.25 9.046875 -6.125 C 9.773438 -5.007812 10.945312 -4.453125 12.5625 -4.453125 C 14.175781 -4.453125 15.332031 -5.007812 16.03125 -6.125 C 16.738281 -7.238281 17.09375 -8.898438 17.09375 -11.109375 C 17.09375 -13.296875 16.738281 -14.9375 16.03125 -16.03125 C 15.320312 -17.125 14.15625 -17.671875 12.53125 -17.671875 C 10.914062 -17.671875 9.75 -17.125 9.03125 -16.03125 C 8.320312 -14.945312 7.96875 -13.304688 7.96875 -11.109375 Z M 23.28125 -11.109375 C 23.28125 -7.503906 22.328125 -4.6875 20.421875 -2.65625 C 18.523438 -0.625 15.878906 0.390625 12.484375 0.390625 C 10.359375 0.390625 8.484375 -0.0703125 6.859375 -1 C 5.242188 -1.925781 4 -3.257812 3.125 -5 C 2.257812 -6.75 1.828125 -8.785156 1.828125 -11.109375 C 1.828125 -14.722656 2.769531 -17.53125 4.65625 -19.53125 C 6.539062 -21.539062 9.191406 -22.546875 12.609375 -22.546875 C 14.734375 -22.546875 16.601562 -22.082031 18.21875 -21.15625 C 19.84375 -20.226562 21.09375 -18.898438 21.96875 -17.171875 C 22.84375 -15.441406 23.28125 -13.421875 23.28125 -11.109375 Z M 23.28125 -11.109375 "/></g></g></g><g fill="#000000" fill-opacity="1"><g transform="translate(516.866077, 163.272881)"><g><path d="M 23.59375 0 L 17.546875 0 L 17.546875 -12.921875 C 17.546875 -14.515625 17.265625 -15.710938 16.703125 -16.515625 C 16.140625 -17.316406 15.234375 -17.71875 13.984375 -17.71875 C 12.296875 -17.71875 11.078125 -17.148438 10.328125 -16.015625 C 9.578125 -14.890625 9.203125 -13.019531 9.203125 -10.40625 L 9.203125 0 L 3.171875 0 L 3.171875 -22.125 L 7.78125 -22.125 L 8.59375 -19.296875 L 8.921875 -19.296875 C 9.597656 -20.367188 10.523438 -21.175781 11.703125 -21.71875 C 12.890625 -22.269531 14.234375 -22.546875 15.734375 -22.546875 C 18.304688 -22.546875 20.257812 -21.847656 21.59375 -20.453125 C 22.925781 -19.054688 23.59375 -17.046875 23.59375 -14.421875 Z M 23.59375 0 "/></g></g></g></svg>